<svg width="116" height="96" viewBox="0 0 116 96" fill="none" xmlns="http://www.w3.org/2000/svg">
<g clip-path="url(#clip0_209_1143)">
<path d="M108.707 77.4811C119.128 58.9561 104.28 30.8334 75.5434 14.6674C46.8066 -1.49854 16.651 2.3749 6.22966 20.9C-4.19165 39.425 20.8239 63.5867 49.5608 79.7527C78.2977 95.9187 98.2854 96.0062 108.707 77.4811Z" stroke="#B85C38" stroke-width="6.98093" stroke-miterlimit="10"/>
<path d="M60.8831 49.7376C69.6182 43.0082 75.389 35.852 73.7725 33.7538C72.1561 31.6555 63.7645 35.4098 55.0294 42.1391C46.2943 48.8685 40.5235 56.0247 42.1399 58.123C43.7564 60.2212 52.148 56.467 60.8831 49.7376Z" fill="#B85C38"/>
<path d="M39.7667 34.1884C47.555 28.1885 52.5583 21.6236 50.9418 19.5253C49.3253 17.4271 41.7013 20.59 33.913 26.59C26.1247 32.5899 21.1214 39.1548 22.7379 41.2531C24.3544 43.3513 31.9784 40.1884 39.7667 34.1884Z" fill="#B85C38"/>
<path d="M81.1577 65.2316C88.946 59.2317 93.9492 52.6668 92.3328 50.5685C90.7163 48.4703 83.0923 51.6332 75.304 57.6332C67.5157 63.6331 62.5124 70.198 64.1289 72.2963C65.7453 74.3946 73.3694 71.2316 81.1577 65.2316Z" fill="#B85C38"/>
</g>
<defs>
<clipPath id="clip0_209_1143">
<rect width="115.119" height="95.7166" fill="white" transform="translate(0.409058 0.20459)"/>
</clipPath>
</defs>
</svg>
